<svg width="67" height="56" viewBox="0 0 67 56" fill="none" xmlns="http://www.w3.org/2000/svg">
<path d="M50.6669 43.5707L51.3664 44.2853L51.3664 44.2853L50.6669 43.5707ZM38.8005 53.7853C38.4058 54.1716 38.399 54.8048 38.7853 55.1995C39.1716 55.5942 39.8048 55.601 40.1995 55.2147L38.8005 53.7853ZM33 44C33.5523 44 34 43.5523 34 43C34 42.4477 33.5523 42 33 42V44ZM26.4865 28.8361C26.3959 28.2912 25.8809 27.923 25.3361 28.0135C24.7912 28.1041 24.423 28.6191 24.5135 29.1639L26.4865 28.8361ZM41.4865 29.1639C41.577 28.6191 41.2088 28.1041 40.6639 28.0135C40.1191 27.923 39.6041 28.2912 39.5135 28.8361L41.4865 29.1639ZM3 2H64V0H3V2ZM65 3V41H67V3H65ZM2 41V3H0V41H2ZM64 42H52.0659V44H64V42ZM49.9675 42.856L38.8005 53.7853L40.1995 55.2147L51.3664 44.2853L49.9675 42.856ZM33 42H3V44H33V42ZM0 41C0 42.6569 1.34315 44 3 44V42C2.44772 42 2 41.5523 2 41H0ZM65 41C65 41.5523 64.5523 42 64 42V44C65.6569 44 67 42.6569 67 41H65ZM64 2C64.5523 2 65 2.44772 65 3H67C67 1.34315 65.6569 0 64 0V2ZM52.0659 42C51.2814 42 50.5281 42.3073 49.9675 42.856L51.3664 44.2853C51.5533 44.1024 51.8044 44 52.0659 44V42ZM3 0C1.34315 0 0 1.34315 0 3H2C2 2.44772 2.44772 2 3 2V0ZM28 18C28 20.2091 26.2091 22 24 22V24C27.3137 24 30 21.3137 30 18H28ZM24 22C21.7909 22 20 20.2091 20 18H18C18 21.3137 20.6863 24 24 24V22ZM20 18C20 15.7909 21.7909 14 24 14V12C20.6863 12 18 14.6863 18 18H20ZM24 14C26.2091 14 28 15.7909 28 18H30C30 14.6863 27.3137 12 24 12V14ZM46 18C46 20.2091 44.2091 22 42 22V24C45.3137 24 48 21.3137 48 18H46ZM42 22C39.7909 22 38 20.2091 38 18H36C36 21.3137 38.6863 24 42 24V22ZM38 18C38 15.7909 39.7909 14 42 14V12C38.6863 12 36 14.6863 36 18H38ZM42 14C44.2091 14 46 15.7909 46 18H48C48 14.6863 45.3137 12 42 12V14ZM25.5 29C24.5135 29.1639 24.5137 29.1648 24.5138 29.1656C24.5139 29.1659 24.514 29.1667 24.5141 29.1673C24.5143 29.1685 24.5145 29.1698 24.5147 29.1711C24.5152 29.1738 24.5157 29.1767 24.5163 29.1798C24.5174 29.1861 24.5188 29.1934 24.5204 29.2017C24.5236 29.2182 24.5278 29.2387 24.5331 29.2627C24.5439 29.3108 24.5593 29.3736 24.581 29.4489C24.6244 29.5993 24.693 29.8008 24.7991 30.0361C25.0117 30.5075 25.3754 31.1151 25.9869 31.7143C27.2302 32.9325 29.3755 34 33 34V32C29.7893 32 28.1846 31.0675 27.3867 30.2857C26.9776 29.8849 26.7479 29.4925 26.6223 29.2139C26.5592 29.0742 26.5225 28.9632 26.5028 28.8949C26.493 28.8608 26.4875 28.8376 26.4851 28.8271C26.484 28.8219 26.4836 28.8199 26.4839 28.8213C26.484 28.822 26.4843 28.8235 26.4847 28.826C26.485 28.8272 26.4852 28.8287 26.4855 28.8303C26.4856 28.8312 26.4858 28.8321 26.486 28.833C26.486 28.8335 26.4862 28.8343 26.4862 28.8345C26.4863 28.8353 26.4865 28.8361 25.5 29ZM33 34C36.6245 34 38.7698 32.9325 40.0131 31.7143C40.6246 31.1151 40.9883 30.5075 41.2009 30.0361C41.307 29.8008 41.3756 29.5993 41.419 29.4489C41.4407 29.3736 41.4561 29.3108 41.4669 29.2627C41.4722 29.2387 41.4764 29.2182 41.4796 29.2017C41.4812 29.1934 41.4826 29.1861 41.4837 29.1798C41.4843 29.1767 41.4848 29.1738 41.4853 29.1711C41.4855 29.1698 41.4857 29.1685 41.4859 29.1673C41.486 29.1667 41.4861 29.1659 41.4862 29.1656C41.4863 29.1648 41.4865 29.1639 40.5 29C39.5135 28.8361 39.5137 28.8353 39.5138 28.8345C39.5138 28.8343 39.514 28.8335 39.514 28.833C39.5142 28.8321 39.5144 28.8312 39.5145 28.8303C39.5148 28.8287 39.515 28.8272 39.5153 28.826C39.5157 28.8235 39.516 28.822 39.5161 28.8213C39.5164 28.8199 39.516 28.8219 39.5149 28.8271C39.5125 28.8376 39.507 28.8608 39.4972 28.8949C39.4775 28.9632 39.4408 29.0742 39.3777 29.2139C39.2521 29.4925 39.0224 29.8849 38.6133 30.2857C37.8154 31.0675 36.2107 32 33 32V34Z" fill="#E6E8EF"/>
</svg>
